<?xml version="1.0" encoding="UTF-8" standalone="no"?>
<svg xmlns="http://www.w3.org/2000/svg" xmlns:xlink="http://www.w3.org/1999/xlink"
  style="isolation:isolate" viewBox="0 0 276 241.271">
  <path
    d=" M 207 240.145 Q 203.372 242.283 138 240.145 Q 72.913 242.397 69 240.145 Q 65.087 237.893 34.5 180.389 Q 0 125.955 0 120.633 Q 0 115.312 34.5 60.878 Q 65.192 3.366 69 1.122 Q 72.808 -1.122 138 1.122 Q 203.133 -1.104 207 1.122 Q 210.867 3.348 241.5 60.878 Q 276 115.312 276 120.633 Q 276 125.955 241.5 180.389 Q 210.628 238.007 207 240.145 Z "
    fill="rgb(0,0,0)" />
  <path d=" M 163.71 47.131 L 163.71 60.878 L 50.749 60.878 L 58 47.131 L 163.71 47.131 L 163.71 47.131 Z "
    fill="rgb(191,215,181)" />
  <path d=" M 163.71 47.131 L 163.71 60.878 L 50.749 60.878 L 58 47.131 L 163.71 47.131 L 163.71 47.131 Z "
    fill="rgb(191,215,181)" />
  <path
    d=" M 112.294 194.135 L 112.294 180.389 L 225.254 180.389 L 218.004 194.135 L 112.294 194.135 L 112.294 194.135 Z "
    fill="rgb(191,215,181)" />
  <path
    d=" M 150.402 173.102 L 150.402 125.254 L 153.566 125.254 L 153.566 125.254 Q 166.504 125.254 169 134.008 L 169 134.008 L 169 134.008 Q 169.844 136.891 169.844 140.617 L 169.844 140.617 L 169.844 173.102 L 150.402 173.102 L 150.402 173.102 Z  M 124.457 173.102 L 124.457 140.617 L 124.457 140.617 Q 124.457 132.848 128.008 129.227 L 128.008 129.227 L 128.008 129.227 Q 131.91 125.254 140.734 125.254 L 140.734 125.254 L 143.898 125.254 L 143.898 173.102 L 124.457 173.102 L 124.457 173.102 Z  M 204.051 136.082 L 204.051 125.254 L 223.457 125.254 L 223.457 149.863 L 220.961 149.863 L 220.961 149.863 Q 211.891 149.863 207.953 146.734 L 207.953 146.734 L 207.953 146.734 Q 204.051 143.605 204.051 136.082 L 204.051 136.082 L 204.051 136.082 Z  M 198.848 173.102 L 197.02 173.102 L 197.02 173.102 Q 191.324 173.102 186.895 168.883 L 186.895 168.883 L 186.895 168.883 Q 182.992 165.156 180.777 158.969 L 180.777 158.969 L 180.777 158.969 Q 178.738 153.273 178.738 147.684 L 178.738 147.684 L 178.738 147.684 Q 178.738 139.281 182.887 132.742 L 182.887 132.742 L 182.887 132.742 Q 185.84 128.102 190.656 126.203 L 190.656 126.203 L 190.656 126.203 Q 193.117 125.254 196.141 125.254 L 196.141 125.254 L 198.848 125.254 L 198.848 173.102 L 198.848 173.102 Z  M 204.051 173.102 L 204.051 163.926 L 221.629 163.926 L 221.629 164.91 L 221.629 164.91 Q 221.629 168.18 219.273 170.43 L 219.273 170.43 L 219.273 170.43 Q 216.391 173.102 211.082 173.102 L 211.082 173.102 L 204.051 173.102 L 204.051 173.102 Z  M 77.043 104.91 L 77.043 69.93 L 79.645 69.93 L 79.645 69.93 Q 90.086 69.93 95.254 74.957 L 95.254 74.957 L 95.254 74.957 Q 100 79.563 100 88 L 100 88 L 100 88 Q 100 95.488 95.078 100.059 L 95.078 100.059 L 95.078 100.059 Q 89.84 104.91 80.629 104.91 L 80.629 104.91 L 77.043 104.91 L 77.043 104.91 Z  M 51.801 117.707 L 51.801 69.93 L 70.715 69.93 L 70.715 117.707 L 51.801 117.707 L 51.801 117.707 Z  M 108.473 117.777 L 108.473 69.93 L 127.387 69.93 L 127.387 117.777 L 108.473 117.777 L 108.473 117.777 Z "
    fill="rgb(191,215,181)" />
</svg>
