<?xml version="1.0" encoding="UTF-8" standalone="no"?>
<!-- Generator: Gravit.io --><svg xmlns="http://www.w3.org/2000/svg" xmlns:xlink="http://www.w3.org/1999/xlink"
  style="isolation:isolate" viewBox="0 0 512.171 512.171">
  <path
    d=" M 283.924 33.125 C 279.935 34.789 277.332 38.672 277.332 42.981 L 277.332 159.866 L 10.666 159.866 C 4.778 159.866 -0.001 164.645 -0.001 170.533 L -0.001 341.2 C -0.001 347.088 4.778 351.867 10.666 351.867 L 277.333 351.867 L 277.333 469.2 C 277.333 473.509 279.936 477.392 283.904 479.056 C 287.893 480.699 292.48 479.803 295.531 476.752 L 509.035 263.952 C 511.04 261.947 512.171 259.237 512.171 256.4 C 512.171 253.563 511.04 250.853 509.056 248.848 L 295.552 35.429 C 292.5 32.378 287.914 31.461 283.924 33.125 Z "
    />
</svg>