<?xml version="1.0" encoding="UTF-8" standalone="no"?>
<!-- Generator: Gravit.io --><svg xmlns="http://www.w3.org/2000/svg" xmlns:xlink="http://www.w3.org/1999/xlink"
  style="isolation:isolate" viewBox="0 0 276 241.271">
  <path
    d=" M 207 240.145 Q 203.372 242.283 138 240.145 Q 72.913 242.397 69 240.145 Q 65.087 237.893 34.5 180.389 Q 0 125.955 0 120.633 Q 0 115.312 34.5 60.878 Q 65.192 3.366 69 1.122 Q 72.808 -1.122 138 1.122 Q 203.133 -1.104 207 1.122 Q 210.867 3.348 241.5 60.878 Q 276 115.312 276 120.633 Q 276 125.955 241.5 180.389 Q 210.628 238.007 207 240.145 Z "
    fill="#D6DFEB" />
  <path d=" M 163.71 47.131 L 163.71 60.878 L 50.749 60.878 L 58 47.131 L 163.71 47.131 Z " fill="#1D3461" />
  <path d=" M 163.71 47.131 L 163.71 60.878 L 50.749 60.878 L 58 47.131 L 163.71 47.131 Z " fill="#1D3461" />
  <path d=" M 112.294 194.135 L 112.294 180.389 L 225.254 180.389 L 218.004 194.135 L 112.294 194.135 Z "
    fill="#1D3461" />
  <path
    d=" M 113.613 138.599 L 113.613 81.767 L 118.669 81.767 L 118.669 81.767 Q 138.956 81.767 148.998 89.934 L 148.998 89.934 L 148.998 89.934 Q 158.219 97.418 158.219 111.125 L 158.219 111.125 L 158.219 111.125 Q 158.219 123.291 148.656 130.718 L 148.656 130.718 L 148.656 130.718 Q 138.478 138.599 120.581 138.599 L 120.581 138.599 L 113.613 138.599 Z  M 64.567 159.39 L 64.567 81.767 L 101.318 81.767 L 101.318 159.39 L 64.567 159.39 Z  M 174.682 159.504 L 174.682 81.767 L 211.433 81.767 L 211.433 159.504 L 174.682 159.504 Z "
    fill="#1D3461" /></svg>
